<svg width="116" height="40" viewBox="0 0 116 40" fill="none" xmlns="http://www.w3.org/2000/svg">
<path d="M13.9004 20.1035L13.127 21.8008L3.8457 2.42188H5.39258L13.9004 20.1035ZM15.4473 16.709L14.6523 18.4062L6.93945 2.42188H8.48633L15.4473 16.709ZM16.9941 13.3359L16.2207 15.0332L10.0332 2.42188H11.5801L16.9941 13.3359ZM15.0391 26.0117L26.2324 2.42188H27.7793L16.5859 26.0117V38H15.0391V26.0117ZM18.1328 26.0117L29.3262 2.42188H30.873L19.6797 26.0117V38H18.1328V26.0117ZM21.2266 26.0117L32.4199 2.42188H33.9668L22.7734 26.0117V38H21.2266V26.0117ZM12.7188 24.3789L23.1387 2.42188H24.6855L13.4922 26.0117V38H11.9453V26.0117L0.751953 2.42188H2.29883L12.7188 24.3789ZM47.9222 14.1953C46.2607 15.8568 45.43 17.862 45.43 20.2109C45.43 22.5599 46.2607 24.5651 47.9222 26.2266C49.5836 27.888 51.5889 28.7188 53.9378 28.7188C56.2868 28.7188 58.292 27.888 59.9534 26.2266C61.6149 24.5651 62.4456 22.5599 62.4456 20.2109C62.4456 17.862 61.6149 15.8568 59.9534 14.1953C58.292 12.5339 56.2868 11.7031 53.9378 11.7031C51.5889 11.7031 49.5836 12.5339 47.9222 14.1953ZM44.678 24.1211C44.1481 22.875 43.8831 21.5716 43.8831 20.2109C43.8831 18.8503 44.1481 17.554 44.678 16.3223C45.208 15.0762 45.9241 14.002 46.8265 13.0996C47.7288 12.1973 48.7959 11.4811 50.0277 10.9512C51.2738 10.4212 52.5771 10.1562 53.9378 10.1562C55.2985 10.1562 56.5947 10.4212 57.8265 10.9512C59.0726 11.4811 60.1468 12.1973 61.0491 13.0996C61.9515 14.002 62.6676 15.0762 63.1976 16.3223C63.7275 17.554 63.9925 18.8503 63.9925 20.2109C63.9925 21.5716 63.7275 22.875 63.1976 24.1211C62.6676 25.3529 61.9515 26.4199 61.0491 27.3223C60.1468 28.2246 59.0726 28.9408 57.8265 29.4707C56.5947 30.0007 55.2985 30.2656 53.9378 30.2656C52.5771 30.2656 51.2738 30.0007 50.0277 29.4707C48.7959 28.9408 47.7288 28.2246 46.8265 27.3223C45.9241 26.4199 45.208 25.3529 44.678 24.1211ZM43.8831 14.3887C42.8519 16.1647 42.3363 18.1055 42.3363 20.2109C42.3363 22.3164 42.8519 24.2572 43.8831 26.0332C44.9287 27.8092 46.3395 29.2201 48.1155 30.2656C49.8916 31.2969 51.8323 31.8125 53.9378 31.8125C56.0433 31.8125 57.984 31.2969 59.7601 30.2656C61.5361 29.2201 62.9398 27.8092 63.971 26.0332C65.0166 24.2572 65.5394 22.3164 65.5394 20.2109C65.5394 18.1055 65.0166 16.1647 63.971 14.3887C62.9398 12.6126 61.5361 11.209 59.7601 10.1777C57.984 9.13216 56.0433 8.60938 53.9378 8.60938C51.8323 8.60938 49.8916 9.13216 48.1155 10.1777C46.3395 11.209 44.9287 12.6126 43.8831 14.3887ZM42.5511 26.8066C41.3766 24.7871 40.7894 22.5885 40.7894 20.2109C40.7894 17.8333 41.3766 15.6348 42.5511 13.6152C43.7256 11.5957 45.3226 9.9987 47.3421 8.82422C49.3616 7.64974 51.5602 7.0625 53.9378 7.0625C56.3154 7.0625 58.514 7.64974 60.5335 8.82422C62.553 9.9987 64.1501 11.5957 65.3245 13.6152C66.499 15.6348 67.0863 17.8333 67.0863 20.2109C67.0863 22.5885 66.499 24.7871 65.3245 26.8066C64.1501 28.8262 62.553 30.4232 60.5335 31.5977C58.514 32.7721 56.3154 33.3594 53.9378 33.3594C51.5602 33.3594 49.3616 32.7721 47.3421 31.5977C45.3226 30.4232 43.7256 28.8262 42.5511 26.8066ZM40.4027 14.4961C39.6292 16.3151 39.2425 18.2201 39.2425 20.2109C39.2425 22.2018 39.6292 24.1068 40.4027 25.9258C41.1761 27.7448 42.2145 29.3132 43.5179 30.6309C44.8356 31.9342 46.404 32.9727 48.223 33.7461C50.042 34.5195 51.9469 34.9062 53.9378 34.9062C55.9287 34.9062 57.8336 34.5195 59.6527 33.7461C61.4717 32.9727 63.0329 31.9342 64.3363 30.6309C65.654 29.3132 66.6995 27.7448 67.473 25.9258C68.2464 24.1068 68.6331 22.2018 68.6331 20.2109C68.6331 18.2201 68.2464 16.3151 67.473 14.4961C66.6995 12.6771 65.654 11.1159 64.3363 9.8125C63.0329 8.49479 61.4717 7.44922 59.6527 6.67578C57.8336 5.90234 55.9287 5.51562 53.9378 5.51562C51.9469 5.51562 50.042 5.90234 48.223 6.67578C46.404 7.44922 44.8356 8.49479 43.5179 9.8125C42.2145 11.1159 41.1761 12.6771 40.4027 14.4961ZM39.8655 28.3535C38.4189 25.8613 37.6956 23.1471 37.6956 20.2109C37.6956 17.2747 38.4189 14.5605 39.8655 12.0684C41.3265 9.57617 43.303 7.60677 45.7952 6.16016C48.2874 4.69922 51.0016 3.96875 53.9378 3.96875C56.874 3.96875 59.5882 4.69922 62.0804 6.16016C64.5726 7.60677 66.542 9.57617 67.9886 12.0684C69.4495 14.5605 70.18 17.2747 70.18 20.2109C70.18 23.1471 69.4495 25.8613 67.9886 28.3535C66.542 30.8457 64.5726 32.8223 62.0804 34.2832C59.5882 35.7298 56.874 36.4531 53.9378 36.4531C51.0016 36.4531 48.2874 35.7298 45.7952 34.2832C43.303 32.8223 41.3265 30.8457 39.8655 28.3535ZM37.5452 13.3145C36.6142 15.5059 36.1488 17.8047 36.1488 20.2109C36.1488 22.6172 36.6142 24.9232 37.5452 27.1289C38.4905 29.3203 39.7581 31.2109 41.348 32.8008C42.9378 34.3906 44.8284 35.6582 47.0198 36.6035C49.2256 37.5345 51.5316 38 53.9378 38C56.3441 38 58.6429 37.5345 60.8343 36.6035C63.04 35.6582 64.9378 34.3906 66.5277 32.8008C68.1175 31.2109 69.3779 29.3203 70.3089 27.1289C71.2542 24.9232 71.7269 22.6172 71.7269 20.2109C71.7269 17.8047 71.2542 15.5059 70.3089 13.3145C69.3779 11.1087 68.1175 9.21094 66.5277 7.62109C64.9378 6.03125 63.04 4.77083 60.8343 3.83984C58.6429 2.89453 56.3441 2.42188 53.9378 2.42188C51.5316 2.42188 49.2256 2.89453 47.0198 3.83984C44.8284 4.77083 42.9378 6.03125 41.348 7.62109C39.7581 9.21094 38.4905 11.1087 37.5452 13.3145ZM36.1273 27.7305C35.1103 25.3385 34.6019 22.832 34.6019 20.2109C34.6019 17.5898 35.1103 15.0905 36.1273 12.7129C37.1585 10.321 38.5335 8.26562 40.2523 6.54688C41.9853 4.8138 44.0407 3.4388 46.4183 2.42188C48.8102 1.39062 51.3167 0.875 53.9378 0.875C56.5589 0.875 59.0583 1.39062 61.4359 2.42188C63.8278 3.4388 65.8831 4.8138 67.6019 6.54688C69.3349 8.26562 70.7099 10.321 71.7269 12.7129C72.7581 15.0905 73.2738 17.5898 73.2738 20.2109C73.2738 22.832 72.7581 25.3385 71.7269 27.7305C70.7099 30.1081 69.3349 32.1634 67.6019 33.8965C65.8831 35.6152 63.8278 36.9831 61.4359 38C59.0583 39.0312 56.5589 39.5469 53.9378 39.5469C51.3167 39.5469 48.8102 39.0312 46.4183 38C44.0407 36.9831 41.9853 35.6152 40.2523 33.8965C38.5335 32.1634 37.1585 30.1081 36.1273 27.7305ZM91.728 16.3438H89.1284C88.0255 16.3438 87.2306 16.0645 86.7436 15.5059C86.2566 14.9329 86.0131 14.181 86.0131 13.25C86.0131 11.1875 87.5528 10.1562 90.6323 10.1562C93.5255 10.1562 95.7026 10.5859 97.1635 11.4453L95.9174 12.3906C94.9148 11.9323 93.1531 11.7031 90.6323 11.7031C89.4005 11.7031 88.5698 11.8392 88.1401 12.1113C87.7247 12.3835 87.517 12.763 87.517 13.25C87.517 13.737 87.6316 14.1165 87.8608 14.3887C88.0899 14.6608 88.5125 14.7969 89.1284 14.7969H91.7924C93.726 14.7969 95.4662 15.1263 97.0131 15.7852C98.5743 16.444 99.8562 17.3464 100.859 18.4922C101.861 19.6237 102.628 20.9342 103.158 22.4238C103.688 23.8991 103.953 25.4818 103.953 27.1719C103.953 28.5469 103.759 29.8503 103.372 31.082C102.986 32.3138 102.399 33.4453 101.611 34.4766C100.837 35.5078 99.8992 36.403 98.7963 37.1621C97.7078 37.9069 96.4044 38.487 94.8862 38.9023C93.3823 39.332 91.7495 39.5469 89.9877 39.5469C87.2234 39.5469 84.631 39.1243 82.2104 38.2793C79.8041 37.4486 77.7989 36.2812 76.1948 34.7773L77.4409 33.8535C78.9018 35.1712 80.728 36.1953 82.9194 36.9258C85.1251 37.6419 87.4812 38 89.9877 38C91.95 38 93.7189 37.7207 95.2944 37.1621C96.8842 36.5892 98.1876 35.8086 99.2045 34.8203C100.236 33.832 101.024 32.6862 101.568 31.3828C102.126 30.0794 102.406 28.6758 102.406 27.1719C102.406 25.181 102.005 23.3835 101.203 21.7793C100.4 20.1608 99.1759 18.8503 97.5287 17.8477C95.8959 16.8451 93.9623 16.3438 91.728 16.3438ZM89.1284 17.8906H91.5776C94.4851 17.8906 96.7553 18.7786 98.3881 20.5547C100.035 22.3307 100.859 24.5365 100.859 27.1719C100.859 29.8503 99.9064 32.0703 98.0014 33.832C96.0965 35.5794 93.4252 36.4531 89.9877 36.4531C87.6961 36.4531 85.5548 36.138 83.5639 35.5078C81.573 34.8776 79.9187 33.9896 78.601 32.8438L79.8041 31.877C80.9786 32.8366 82.4539 33.5814 84.2299 34.1113C86.0203 34.6413 87.9396 34.9062 89.9877 34.9062C93.0099 34.9062 95.3159 34.1829 96.9057 32.7363C98.5099 31.2897 99.312 29.4349 99.312 27.1719C99.312 24.9375 98.6388 23.0898 97.2924 21.6289C95.9604 20.168 94.0483 19.4375 91.5561 19.4375H89.1284C87.0372 19.4375 85.4689 18.8646 84.4233 17.7188C83.3777 16.5729 82.8549 15.0833 82.8549 13.25C82.8549 11.4167 83.4995 9.92708 84.7885 8.78125C86.0919 7.63542 88.0398 7.0625 90.6323 7.0625C92.4513 7.0625 94.1414 7.27734 95.7026 7.70703C97.2638 8.1224 98.5528 8.72396 99.5698 9.51172L98.3452 10.457C96.5548 9.22526 93.9838 8.60938 90.6323 8.60938C88.4695 8.60938 86.8868 9.03906 85.8842 9.89844C84.8959 10.7435 84.4018 11.8607 84.4018 13.25C84.4018 14.6536 84.767 15.778 85.4975 16.623C86.2423 17.4681 87.4526 17.8906 89.1284 17.8906ZM89.1284 20.9844H91.4916C93.5828 20.9844 95.1511 21.5645 96.1967 22.7246C97.2423 23.8848 97.7651 25.3672 97.7651 27.1719C97.7651 29.0052 97.1134 30.4948 95.81 31.6406C94.5209 32.7865 92.5802 33.3594 89.9877 33.3594C88.1687 33.3594 86.4715 33.1517 84.8959 32.7363C83.3347 32.3066 82.0457 31.6979 81.0287 30.9102L82.2534 29.9648C84.0437 31.1966 86.6218 31.8125 89.9877 31.8125C92.1505 31.8125 93.726 31.39 94.7143 30.5449C95.7169 29.6855 96.2182 28.5612 96.2182 27.1719C96.2182 25.7826 95.8458 24.6654 95.101 23.8203C94.3562 22.9609 93.1459 22.5312 91.4702 22.5312H89.1284C86.1922 22.5312 83.8933 21.6576 82.2319 19.9102C80.5847 18.1484 79.7612 15.9284 79.7612 13.25C79.7612 10.5716 80.7136 8.35872 82.6186 6.61133C84.5235 4.84961 87.1948 3.96875 90.6323 3.96875C92.9239 3.96875 95.058 4.28385 97.0346 4.91406C99.0255 5.54427 100.68 6.43229 101.997 7.57812L100.794 8.54492C99.6199 7.58529 98.1446 6.84049 96.3686 6.31055C94.5925 5.7806 92.6804 5.51562 90.6323 5.51562C87.6101 5.51562 85.297 6.23893 83.6928 7.68555C82.103 9.13216 81.308 10.987 81.308 13.25C81.308 15.4987 81.9812 17.3535 83.3276 18.8145C84.6739 20.2611 86.6075 20.9844 89.1284 20.9844ZM89.1284 24.0781H91.4916C92.5945 24.0781 93.3894 24.3646 93.8764 24.9375C94.3634 25.5104 94.6069 26.2552 94.6069 27.1719C94.6069 29.2344 93.0672 30.2656 89.9877 30.2656C87.0802 30.2656 84.8959 29.8359 83.435 28.9766L84.6811 28.0312C85.6837 28.4896 87.4526 28.7188 89.9877 28.7188C91.2195 28.7188 92.0431 28.5827 92.4584 28.3105C92.8881 28.0384 93.103 27.6589 93.103 27.1719C93.103 26.6992 92.9812 26.3268 92.7377 26.0547C92.5086 25.7682 92.0789 25.625 91.4487 25.625H89.1284C87.1518 25.625 85.3614 25.3027 83.7573 24.6582C82.1674 24.0137 80.8569 23.1257 79.8256 21.9941C78.8087 20.8626 78.0281 19.5521 77.4838 18.0625C76.9396 16.5729 76.6674 14.9688 76.6674 13.25C76.6674 11.875 76.8608 10.5716 77.2475 9.33984C77.6342 8.10807 78.2143 6.97656 78.9877 5.94531C79.7755 4.91406 80.7136 4.02604 81.8022 3.28125C82.905 2.52214 84.2084 1.9349 85.7123 1.51953C87.2306 1.08984 88.8705 0.875 90.6323 0.875C93.3966 0.875 95.9819 1.29753 98.3881 2.14258C100.794 2.97331 102.8 4.14062 104.404 5.64453L103.158 6.56836C101.697 5.25065 99.8705 4.23372 97.6791 3.51758C95.4877 2.78711 93.1388 2.42188 90.6323 2.42188C88.67 2.42188 86.894 2.70833 85.3041 3.28125C83.7286 3.83984 82.4252 4.61328 81.394 5.60156C80.3771 6.58984 79.5893 7.73568 79.0307 9.03906C78.4864 10.3424 78.2143 11.7461 78.2143 13.25C78.2143 15.2695 78.6225 17.0885 79.4389 18.707C80.2553 20.3255 81.5014 21.6289 83.1772 22.6172C84.853 23.5911 86.8367 24.0781 89.1284 24.0781ZM108.012 31.8125V30.2656H115.747V31.8125H108.012ZM108.012 34.9062V33.3594H115.747V34.9062H108.012ZM108.012 38V36.4531H115.747V38H108.012Z" fill="black"/>
</svg>
