<svg width="40" height="40" viewBox="0 0 40 40" fill="none" xmlns="http://www.w3.org/2000/svg">
<path d="M10.4763 11.9047H34.2858L31.2648 22.4762C31.0372 23.2719 30.5566 23.972 29.8957 24.4703C29.2349 24.9686 28.4297 25.2381 27.602 25.2381H14.8401C13.9019 25.2386 12.9965 24.8929 12.2974 24.2673C11.5983 23.6417 11.1547 22.7801 11.0515 21.8476L9.52388 8.09521H5.71436" stroke="black" stroke-width="1.90476" stroke-linecap="round" stroke-linejoin="round"/>
<path d="M14.2861 31.9047C15.3381 31.9047 16.1909 31.0519 16.1909 30C16.1909 28.948 15.3381 28.0952 14.2861 28.0952C13.2341 28.0952 12.3813 28.948 12.3813 30C12.3813 31.0519 13.2341 31.9047 14.2861 31.9047Z" fill="black"/>
<path d="M29.5244 31.9047C30.5764 31.9047 31.4292 31.0519 31.4292 30C31.4292 28.948 30.5764 28.0952 29.5244 28.0952C28.4724 28.0952 27.6196 28.948 27.6196 30C27.6196 31.0519 28.4724 31.9047 29.5244 31.9047Z" fill="black"/>
</svg>
